<svg id="visual" viewBox="0 0 900 600" width="900" height="600" xmlns="http://www.w3.org/2000/svg" xmlns:xlink="http://www.w3.org/1999/xlink" version="1.1"><path d="M0 313L113 350L225 294L338 314L450 340L563 329L675 336L788 323L900 302L900 601L788 601L675 601L563 601L450 601L338 601L225 601L113 601L0 601Z" fill="#ffffff"></path><path d="M0 414L113 356L225 386L338 366L450 382L563 395L675 406L788 383L900 365L900 601L788 601L675 601L563 601L450 601L338 601L225 601L113 601L0 601Z" fill="#f6f6f6"></path><path d="M0 443L113 443L225 384L338 396L450 382L563 400L675 426L788 377L900 380L900 601L788 601L675 601L563 601L450 601L338 601L225 601L113 601L0 601Z" fill="#eeeeee"></path><path d="M0 434L113 450L225 466L338 448L450 443L563 454L675 482L788 467L900 477L900 601L788 601L675 601L563 601L450 601L338 601L225 601L113 601L0 601Z" fill="#e5e5e5"></path><path d="M0 454L113 484L225 474L338 452L450 509L563 451L675 491L788 510L900 512L900 601L788 601L675 601L563 601L450 601L338 601L225 601L113 601L0 601Z" fill="#dddddd"></path><path d="M0 507L113 498L225 508L338 536L450 496L563 539L675 528L788 503L900 508L900 601L788 601L675 601L563 601L450 601L338 601L225 601L113 601L0 601Z" fill="#d4d4d4"></path><path d="M0 563L113 573L225 554L338 572L450 575L563 559L675 573L788 564L900 547L900 601L788 601L675 601L563 601L450 601L338 601L225 601L113 601L0 601Z" fill="#cccccc"></path></svg>