<svg id="visual" viewBox="0 0 900 600" width="900" height="600" xmlns="http://www.w3.org/2000/svg" xmlns:xlink="http://www.w3.org/1999/xlink" version="1.1"><path d="M0 433L129 421L257 372L386 354L514 429L643 350L771 407L900 410L900 601L771 601L643 601L514 601L386 601L257 601L129 601L0 601Z" fill="#5370a5"></path><path d="M0 480L129 441L257 437L386 432L514 442L643 411L771 393L900 471L900 601L771 601L643 601L514 601L386 601L257 601L129 601L0 601Z" fill="#455e89"></path><path d="M0 456L129 507L257 454L386 441L514 486L643 483L771 487L900 450L900 601L771 601L643 601L514 601L386 601L257 601L129 601L0 601Z" fill="#384c6e"></path><path d="M0 514L129 490L257 530L386 514L514 539L643 486L771 531L900 492L900 601L771 601L643 601L514 601L386 601L257 601L129 601L0 601Z" fill="#2c3b54"></path><path d="M0 534L129 531L257 534L386 551L514 556L643 535L771 529L900 545L900 601L771 601L643 601L514 601L386 601L257 601L129 601L0 601Z" fill="#202a3c"></path></svg>